<svg width="64" height="64" viewBox="0 0 64 64" fill="none" xmlns="http://www.w3.org/2000/svg">
<rect width="64" height="64" fill="white"/>
<path d="M16.5 53L16.5 24C17.2981 19.0591 19.302 18.1864 24 18M11 36.0001H25" stroke="url(#paint0_linear_51_7191)" stroke-width="4"/>
<path d="M6 16V53" stroke="url(#paint1_linear_51_7191)" stroke-width="4"/>
<path d="M45.2433 26.3337V22.5414L46.5 20.028L47.7567 22.5414V26.3337H45.2433ZM46.5 52.972L45.2433 50.4586V46.0125H46.5H47.7567V50.4586L46.5 52.972ZM56.0125 37.7567V36.5V35.2433H60.4586L62.972 36.5L60.4586 37.7567H56.0125ZM32.5414 37.7567L30.028 36.5L32.5414 35.2433H36.3337V37.7567H32.5414ZM57.2771 27.5457L55.0003 29.9814L53.244 27.9966L55.4546 25.7228L57.9057 25.0943L57.2771 27.5457ZM37.5451 47.2776L33.8364 48.5348L35.7214 45.4559L37.996 43.2445L39.7555 45.004L37.5451 47.2776ZM55.4549 47.2773L52.517 44.0002L53.2355 43.236L53.236 43.2355L54.0002 42.517L57.2773 45.4549L57.9057 47.9057L55.4549 47.2773ZM37.996 29.7555L35.7228 27.5454L35.0943 25.0943L37.5454 25.7228L39.7555 27.996L37.996 29.7555ZM46.5 44.1029C44.3879 44.1029 42.593 43.3638 41.1146 41.8854C39.6362 40.407 38.8971 38.6121 38.8971 36.5C38.8971 34.3879 39.6362 32.593 41.1146 31.1146C42.593 29.6362 44.3879 28.8971 46.5 28.8971C48.6121 28.8971 50.407 29.6362 51.8854 31.1146C53.3638 32.593 54.1029 34.3879 54.1029 36.5C54.1029 38.6121 53.3638 40.407 51.8854 41.8854C50.407 43.3638 48.6121 44.1029 46.5 44.1029ZM46.5 41.5894C47.9206 41.5894 49.1242 41.0963 50.1103 40.1103C51.0963 39.1242 51.5894 37.9206 51.5894 36.5C51.5894 35.0794 51.0963 33.8758 50.1103 32.8897C49.1242 31.9037 47.9206 31.4106 46.5 31.4106C45.0794 31.4106 43.8758 31.9037 42.8897 32.8897C41.9037 33.8758 41.4106 35.0794 41.4106 36.5C41.4106 37.9206 41.9037 39.1242 42.8897 40.1103C43.8758 41.0963 45.0794 41.5894 46.5 41.5894Z" fill="url(#paint2_linear_51_7191)" stroke="#664141" stroke-width="0.025"/>
<defs>
<linearGradient id="paint0_linear_51_7191" x1="9" y1="18" x2="27.5" y2="48.5" gradientUnits="userSpaceOnUse">
<stop stop-color="#20DE16"/>
<stop offset="1" stop-color="#FFBF10"/>
</linearGradient>
<linearGradient id="paint1_linear_51_7191" x1="-11.2885" y1="10.0991" x2="9" y2="40.5" gradientUnits="userSpaceOnUse">
<stop stop-color="#20DE16"/>
<stop offset="1" stop-color="#FFBF10"/>
</linearGradient>
<linearGradient id="paint2_linear_51_7191" x1="49.5" y1="42" x2="37" y2="28" gradientUnits="userSpaceOnUse">
<stop stop-color="#FFBF10"/>
<stop offset="1" stop-color="#20DE16"/>
</linearGradient>
</defs>
</svg>
